# xmcd
#
# Track frame offsets:
#	150
#	14932
#	27334
#	42464
#	56053
#	69397
#	83692
#	97162
#	111507
#	123976
#	137280
#	151716
#	164672
#	179152
#	192326
#	203718
#	217509
#	230651
#
# Disc length: 3268 seconds
#
# Revision: 0
# Processed by: cddbd v1.5.2PL0 Copyright (c) Steve Scherf et al.
# Submitted via: EasyCDDAExtractor 16.0.4.1
#
DISCID=040cc212
DTITLE=Various Artist - Early Blues Moods CD 2
DYEAR=1900
DGENRE=Unknown
TTITLE0=Bo Carter - Corinna, Corinna
TTITLE1=Mississipi John Hurt - Candyman Blues
TTITLE2=Pine Top Smith - Pine Top's Boogie woogie
TTITLE3=Hambone Willie Newbern - Roll and Tumble Blues
TTITLE4=Bessie Smith - Nobody Knows When You're Down And Out
TTITLE5=Charley Patton - A Spoonful Blues
TTITLE6=Roosevelt Sykes - 44 Blues
TTITLE7=Kansas Joe McCoy - When The Levee Breaks
TTITLE8=Frankie Jaxon and Tampa Red - I Wonder Where My Easy Rider's Gone
TTITLE9=Blind Blake - Diddie  Wa Diddie
TTITLE10=Speckled Red - The Dirty Dozen
TTITLE11=Robert Wilkens - That's No Way To Get Along
TTITLE12=Sleepy John Estes - Divin' Duck Blues
TTITLE13=Cannon's Jug Stompers - Walk Right In
TTITLE14=Memphis Jug Band - K C Moan
TTITLE15=Victoria Spivey - Dirty T B Blues
TTITLE16=Blind Joe Reynolds - Outside Woman Blues
TTITLE17=Mississipi Sheiks - Stiing On Top Of The World
EXTD=
EXTT0=
EXTT1=
EXTT2=
EXTT3=
EXTT4=
EXTT5=
EXTT6=
EXTT7=
EXTT8=
EXTT9=
EXTT10=
EXTT11=
EXTT12=
EXTT13=
EXTT14=
EXTT15=
EXTT16=
EXTT17=
PLAYORDER=
